<?xml version="1.0" encoding="UTF-8" standalone="no"?>
<svg width="343px" height="705px" viewBox="0 0 343 705" version="1.1" xmlns="http://www.w3.org/2000/svg" xmlns:xlink="http://www.w3.org/1999/xlink" xmlns:sketch="http://www.bohemiancoding.com/sketch/ns">
    <!-- Generator: Sketch 3.5.1 (25234) - http://www.bohemiancoding.com/sketch -->
    <title>Group</title>
    <desc>Created with Sketch.</desc>
    <defs>
        <filter x="-50%" y="-50%" width="200%" height="200%" filterUnits="objectBoundingBox" id="filter-1">
            <feOffset dx="0" dy="-3" in="SourceAlpha" result="shadowOffsetInner1"></feOffset>
            <feGaussianBlur stdDeviation="0" in="shadowOffsetInner1" result="shadowBlurInner1"></feGaussianBlur>
            <feComposite in="shadowBlurInner1" in2="SourceAlpha" operator="arithmetic" k2="-1" k3="1" result="shadowInnerInner1"></feComposite>
            <feColorMatrix values="0 0 0 0 0   0 0 0 0 0   0 0 0 0 0  0 0 0 0.7 0" in="shadowInnerInner1" type="matrix" result="shadowMatrixInner1"></feColorMatrix>
            <feMerge>
                <feMergeNode in="SourceGraphic"></feMergeNode>
                <feMergeNode in="shadowMatrixInner1"></feMergeNode>
            </feMerge>
        </filter>
    </defs>
    <g id="Page-1" stroke="none" stroke-width="1" fill="none" fill-rule="evenodd" sketch:type="MSPage">
        <g id="Group" sketch:type="MSLayerGroup" transform="translate(0.000000, -7.000000)">
            <rect id="Rectangle-1" fill="#1A6489" sketch:type="MSShapeGroup" x="92" y="35" width="4" height="79"></rect>
            <rect id="Rectangle-1" fill="#198DBF" sketch:type="MSShapeGroup" x="13" y="256" width="317" height="443"></rect>
            <rect id="Rectangle-1" fill="#4B98B9" sketch:type="MSShapeGroup" x="135" y="233" width="77" height="23"></rect>
            <rect id="Rectangle-1" fill="#57B5E3" sketch:type="MSShapeGroup" x="80" y="110.5" width="183" height="134"></rect>
            <rect id="Rectangle-1" fill="#57B5E3" sketch:type="MSShapeGroup" x="37" y="699" width="77" height="13"></rect>
            <rect id="Rectangle-1" fill="#57B5E3" sketch:type="MSShapeGroup" x="222" y="699" width="77" height="13"></rect>
            <rect id="Rectangle-1" fill="#57B5E3" sketch:type="MSShapeGroup" x="0" y="332" width="13" height="146"></rect>
            <rect id="Rectangle-1" fill="#57B5E3" sketch:type="MSShapeGroup" x="330" y="332" width="13" height="146"></rect>
            <ellipse id="Oval-1" fill="#D3F1FF" sketch:type="MSShapeGroup" cx="135.5" cy="157" rx="21.5" ry="21"></ellipse>
            <polygon id="Star-1" fill="#0097E2" sketch:type="MSShapeGroup" transform="translate(94.000000, 33.000000) rotate(19.000000) translate(-94.000000, -33.000000) " points="94 36.0120933 84.4329142 57.0208678 91.9520465 35.1298716 70.9030117 42.9497692 91.1037564 33 70.9030117 23.0502308 91.9520465 30.8701284 84.4329142 8.97913215 94 29.9879067 103.567086 8.97913215 96.0479535 30.8701284 117.096988 23.0502308 96.8962436 33 117.096988 42.9497692 96.0479535 35.1298716 103.567086 57.0208678 "></polygon>
            <circle id="Oval-1" fill="#FFCB5D" sketch:type="MSShapeGroup" cx="94" cy="34" r="5"></circle>
            <ellipse id="Oval-1" fill="#D4F1FF" sketch:type="MSShapeGroup" cx="212.5" cy="157" rx="21.5" ry="21"></ellipse>
            <path d="M210.5,170 C217.403559,170 223,164.627417 223,158 C223,151.372583 217.403559,146 210.5,146 C203.596441,146 198,151.372583 198,158 C198,164.627417 203.596441,170 210.5,170 Z" id="Oval-1" fill="#BFE7FA" sketch:type="MSShapeGroup"></path>
            <ellipse id="Oval-1" fill="#BFE7FA" sketch:type="MSShapeGroup" cx="137.5" cy="160" rx="12.5" ry="12"></ellipse>
            <rect id="Rectangle-8" fill="#004A6F" filter="url(#filter-1)" sketch:type="MSShapeGroup" x="143" y="203" width="61" height="13"></rect>
        </g>
    </g>
</svg>