<?xml version="1.0" encoding="UTF-8" standalone="no"?>
<svg width="21px" height="17px" viewBox="0 0 21 17" version="1.1" xmlns="http://www.w3.org/2000/svg" xmlns:xlink="http://www.w3.org/1999/xlink" xmlns:sketch="http://www.bohemiancoding.com/sketch/ns">
    <!-- Generator: Sketch 3.5.1 (25234) - http://www.bohemiancoding.com/sketch -->
    <title>fa-twitter 2</title>
    <desc>Created with Sketch.</desc>
    <defs></defs>
    <g id="Landing" stroke="none" stroke-width="1" fill="none" fill-rule="evenodd" sketch:type="MSPage">
        <g id="fa-twitter-2" sketch:type="MSLayerGroup" fill="#FFFFFF">
            <path d="M6.823,16.45 C8.26,16.45 9.606,16.226 10.886,15.777 C12.143,15.305 13.22,14.699 14.118,13.936 C14.993,13.173 15.779,12.298 16.43,11.31 C17.058,10.3 17.552,9.267 17.866,8.19 C18.181,7.113 18.338,6.035 18.338,4.935 L18.338,4.419 C19.123,3.836 19.797,3.14 20.358,2.332 C19.572,2.646 18.809,2.87 18.023,2.938 C18.899,2.421 19.505,1.681 19.797,0.716 C19.011,1.187 18.158,1.524 17.238,1.703 C16.43,0.85 15.442,0.424 14.275,0.424 C13.175,0.424 12.21,0.805 11.424,1.591 C10.639,2.399 10.235,3.342 10.235,4.464 C10.235,4.756 10.28,5.07 10.347,5.384 C8.686,5.317 7.137,4.89 5.678,4.15 C4.242,3.387 3.007,2.399 1.997,1.165 C1.638,1.793 1.436,2.466 1.436,3.207 C1.436,3.88 1.616,4.531 1.93,5.137 C2.267,5.721 2.693,6.192 3.254,6.574 C2.603,6.551 1.997,6.372 1.414,6.058 L1.414,6.103 C1.414,7.09 1.728,7.943 2.334,8.684 C2.962,9.425 3.725,9.873 4.668,10.075 C4.309,10.165 3.95,10.21 3.591,10.21 C3.366,10.21 3.119,10.188 2.828,10.143 C3.097,10.951 3.568,11.624 4.264,12.141 C4.96,12.679 5.746,12.948 6.621,12.948 C5.14,14.116 3.479,14.677 1.593,14.677 C1.234,14.677 0.92,14.677 0.628,14.632 C2.491,15.844 4.578,16.45 6.823,16.45" id="Fill-178" sketch:type="MSShapeGroup"></path>
        </g>
    </g>
</svg>